<svg width="24" height="18" viewBox="0 0 24 18" fill="none" xmlns="http://www.w3.org/2000/svg">
<path d="M23.25 0.09375H0.75C0.62568 0.09375 0.506451 0.143136 0.418544 0.231044C0.330636 0.318951 0.28125 0.43818 0.28125 0.5625V16.5C0.28125 16.873 0.429408 17.2306 0.693131 17.4944C0.956854 17.7581 1.31454 17.9062 1.6875 17.9062H22.3125C22.6855 17.9062 23.0431 17.7581 23.3069 17.4944C23.5706 17.2306 23.7188 16.873 23.7188 16.5V0.5625C23.7188 0.43818 23.6694 0.318951 23.5815 0.231044C23.4935 0.143136 23.3743 0.09375 23.25 0.09375ZM12 10.2422L1.95703 1.03125H22.043L12 10.2422ZM9.25781 9L1.21875 16.3711V1.62891L9.25781 9ZM9.94922 9.63281L11.6836 11.2148C11.7687 11.2965 11.8821 11.3421 12 11.3421C12.1179 11.3421 12.2313 11.2965 12.3164 11.2148L14.0508 9.63281L22.043 16.9688H1.95703L9.94922 9.63281ZM14.7422 9L22.7812 1.62891V16.3711L14.7422 9Z" fill="white"/>
</svg>
