<svg width="24" height="30" viewBox="0 0 30 30" fill="none" xmlns="http://www.w3.org/2000/svg">
<path d="M20.625 26.0156C11.4492 26.0156 3.98438 18.5508 3.98438 9.37499C3.98603 7.83478 4.54832 6.34784 5.56622 5.19193C6.58411 4.03602 7.98799 3.29018 9.51562 3.09374C9.86714 3.05259 10.2225 3.12621 10.5288 3.30362C10.835 3.48103 11.0757 3.75271 11.2148 4.07812L13.5703 9.57421C13.6772 9.82288 13.7213 10.094 13.6988 10.3637C13.6763 10.6334 13.5879 10.8935 13.4414 11.1211L11.4844 14.0976C11.465 14.1312 11.4539 14.1689 11.4519 14.2076C11.4498 14.2463 11.4569 14.2849 11.4727 14.3203C12.3728 16.1659 13.8668 17.6557 15.7148 18.5508C15.7507 18.5669 15.7902 18.5732 15.8293 18.5691C15.8684 18.565 15.9058 18.5506 15.9375 18.5273L18.8789 16.5703C19.1042 16.4189 19.364 16.3267 19.6344 16.3021C19.9047 16.2775 20.1769 16.3214 20.4258 16.4297L25.9219 18.7851C26.2473 18.9243 26.519 19.165 26.6964 19.4712C26.8738 19.7774 26.9474 20.1328 26.9063 20.4844C26.7098 22.012 25.964 23.4159 24.8081 24.4338C23.6521 25.4517 22.1652 26.014 20.625 26.0156ZM9.71484 4.48827H9.69141C8.5045 4.64429 7.41447 5.22554 6.62357 6.12419C5.83268 7.02284 5.3946 8.17788 5.39063 9.37499C5.39373 13.4144 6.99977 17.2876 9.8561 20.1439C12.7124 23.0002 16.5855 24.6063 20.625 24.6094C21.8221 24.6054 22.9771 24.1673 23.8758 23.3764C24.7744 22.5855 25.3557 21.4955 25.5117 20.3086C25.5157 20.2597 25.5043 20.2108 25.4791 20.1688C25.4539 20.1267 25.4161 20.0937 25.3711 20.0742L19.875 17.7187C19.8387 17.7048 19.7996 17.6996 19.7609 17.7037C19.7221 17.7077 19.685 17.7209 19.6523 17.7422L16.7227 19.6992C16.4855 19.855 16.2124 19.9476 15.9293 19.9681C15.6462 19.9886 15.3627 19.9364 15.1055 19.8164C12.9739 18.7787 11.2499 17.0588 10.207 14.9297C10.0852 14.6755 10.031 14.3943 10.0494 14.1131C10.0679 13.8319 10.1585 13.5602 10.3125 13.3242L12.2578 10.3476C12.281 10.3159 12.2954 10.2786 12.2996 10.2395C12.3037 10.2004 12.2974 10.1609 12.2813 10.125L9.92578 4.6289C9.90781 4.5877 9.87837 4.55254 9.84097 4.5276C9.80357 4.50267 9.75979 4.48902 9.71484 4.48827Z" fill="white"/>
</svg>
