<svg width="20" height="21" viewBox="0 0 20 21" fill="none" xmlns="http://www.w3.org/2000/svg">
<path d="M17.0938 10.7294L11.4688 16.3544C11.4403 16.3837 11.4063 16.407 11.3688 16.4229C11.3312 16.4388 11.2908 16.447 11.25 16.447C11.2092 16.447 11.1688 16.4388 11.1312 16.4229C11.0937 16.407 11.0597 16.3837 11.0313 16.3544C11.002 16.326 10.9787 16.292 10.9628 16.2544C10.9469 16.2168 10.9387 16.1764 10.9387 16.1356C10.9387 16.0948 10.9469 16.0544 10.9628 16.0168C10.9787 15.9793 11.002 15.9453 11.0313 15.9169L16.1172 10.8231H3.125C3.04212 10.8231 2.96263 10.7902 2.90403 10.7316C2.84542 10.673 2.8125 10.5935 2.8125 10.5106C2.8125 10.4277 2.84542 10.3483 2.90403 10.2896C2.96263 10.231 3.04212 10.1981 3.125 10.1981H16.1172L11.0313 5.10437C10.9861 5.04419 10.9642 4.96975 10.9695 4.89472C10.9749 4.81968 11.0071 4.74909 11.0603 4.6959C11.1135 4.64271 11.1841 4.61049 11.2591 4.60516C11.3341 4.59982 11.4086 4.62174 11.4688 4.66687L17.0938 10.2919C17.123 10.3203 17.1463 10.3543 17.1622 10.3919C17.1782 10.4294 17.1863 10.4698 17.1863 10.5106C17.1863 10.5514 17.1782 10.5918 17.1622 10.6294C17.1463 10.667 17.123 10.701 17.0938 10.7294Z" fill="white"/>
</svg>
